<?xml version="1.0" encoding="utf-8"?>
<svg version="1.1" id="Layer_1" xmlns="http://www.w3.org/2000/svg" xmlns:xlink="http://www.w3.org/1999/xlink" x="0px" y="0px"
	 viewBox="0 0 550.7 125.3" style="enable-background:new 0 0 550.7 125.3;" preserveAspectRatio="xMidYMid meet" xml:space="preserve">
<style type="text/css">
	.st0{fill:#48A842;}
	.st1{fill:#FFFFFF;}
	.st2{fill:#003E7E;}
</style>
<g>
	<path class="st0" d="M55.1,110.2C24.7,110.2,0,85.5,0,55.1S24.7,0,55.1,0h55.1v55.1C110.1,85.6,85.5,110.2,55.1,110.2z"/>
	<polygon class="st1" points="89.5,44.8 65.4,44.8 65.4,20.7 44.7,20.7 44.7,44.8 20.6,44.8 20.6,65.5 44.7,65.5 44.7,89.6 
		65.4,89.6 65.4,65.5 89.5,65.5 	"/>
	<path class="st2" d="M130.8,20.7h26.4c18.2,0,33.9,15.9,33.9,34.4c0,18.6-15.7,34.5-33.9,34.5h-26.4V20.7z M152.8,74.4
		c6.7,0,11-1.8,14.7-5.8c3.2-3.5,5-8.4,5-13.5s-1.8-9.9-5-13.4c-3.6-4-7.9-5.8-14.7-5.8h-4.1v38.5H152.8z"/>
	<path class="st2" d="M266.6,31.1c5.8,6.6,9,15.1,9,24c0,11.5-5.2,22-13.9,28.9c-6.8,5.3-14.9,7.8-24.5,7.8
		c-21.7,0-37.8-15.9-37.8-37.4c0-10.7,5.3-21.4,13.9-28.2c6.4-5.1,15.2-7.8,24.2-7.8C249.4,18.5,259.2,22.7,266.6,31.1z M218,54.9
		c0,10.9,8.6,19.6,19.4,19.6c10.7,0,19.4-8.7,19.4-19.4c0-10.6-8.7-19.3-19.4-19.3C226.8,35.8,218,44.5,218,54.9z"/>
	<path class="st2" d="M266.6,31.1c5.8,6.6,9,15.1,9,24c0,11.5-5.2,22-13.9,28.9c-6.8,5.3-14.9,7.8-24.5,7.8
		c-21.7,0-37.8-15.9-37.8-37.4c0-10.7,5.3-21.4,13.9-28.2c6.4-5.1,15.2-7.8,24.2-7.8C249.4,18.5,259.3,22.7,266.6,31.1z M218.1,54.9
		c0,10.9,8.6,19.6,19.4,19.6c10.7,0,19.4-8.7,19.4-19.4c0-10.6-8.7-19.3-19.4-19.3S218.1,44.5,218.1,54.9z"/>
	<path class="st2" d="M313.2,62.6l16.7-41.9h19.4L320,89.6h-13.9l-28.9-68.8h19.5L313.2,62.6z"/>
	<path class="st2" d="M375.8,35.9v11.5h20.1v15.2h-20.1v11.9h30.3v15.1h-48.2V20.7h48.2v15.2H375.8z"/>
	<path class="st2" d="M473.6,89.6h-22.3l-17-26.4v26.4h-17.9V20.7h27.8c7.8,0,12.9,1.9,16.9,6.1c3.7,3.9,5.9,9.5,5.9,15.2
		c0,6.3-2.5,12.2-6.6,15.6c-2.3,1.9-4.4,2.9-8.5,3.8L473.6,89.6z M437.6,51.6c3.4,0,6-0.6,7.6-1.9c2-1.4,3.4-4.2,3.4-6.7
		s-1.4-5.3-3.4-6.7c-1.7-1.2-4.2-1.9-7.6-1.9h-3.3v17.2H437.6z"/>
	<path class="st2" d="M502.5,77.6l-4.7,12h-18.9l26.4-68.8h19.5l25.9,68.8h-19.1l-4.4-12H502.5z M515,42l-7.5,22h14.9L515,42z"/>
	<g>
		<path class="st2" d="M237.5,0.1c6.5,0,13,1,19,2.9l-4.1,11.3c-4.7-1.5-9.7-2.3-14.9-2.3c-5.1,0-10.2,0.8-14.9,2.3L218.5,3
			C224.5,1.1,230.9,0.1,237.5,0.1"/>
	</g>
	<g>
		<path class="st2" d="M145.6,121.9v2.1h-14.8l11.3-18.5h-9.8v-2.1h13.6l-11.2,18.5L145.6,121.9L145.6,121.9z"/>
		<path class="st2" d="M151.3,103.3h4.2c3.3,0,5.6,0.7,7.6,2.4c2.3,1.9,3.6,4.7,3.6,7.9c0,3.3-1.2,6-3.6,8c-2,1.7-4.2,2.4-7.6,2.4
			h-4.2V103.3z M155.6,121.9c2.5,0,4.4-0.6,5.9-1.9c1.8-1.5,2.8-3.8,2.8-6.3s-1-4.8-2.8-6.3c-1.5-1.3-3.4-1.9-5.9-1.9h-2v16.4H155.6
			z"/>
		<path class="st2" d="M184.8,124H182l-6.2-9h-0.6v9h-2.3v-20.7h3.3c2.4,0,3.7,0.3,5,1.1c1.4,1,2.3,2.7,2.3,4.7c0,3.1-2,5.4-5.2,5.6
			L184.8,124z M176.6,112.9c2.9,0,4.6-1.4,4.6-3.8c0-1.3-0.6-2.4-1.5-3c-0.7-0.5-1.7-0.7-3.1-0.7h-1.4v7.4h1.4V112.9z"/>
		<path class="st2" d="M192.8,118.1l-2.5,5.9h-2.5l9.5-21.7l9.3,21.7h-2.5l-2.4-5.9H192.8z M197.3,107.7l-3.5,8.3h7L197.3,107.7z"/>
		<path class="st2" d="M216,119.1l5.9-15.7h2.5l-8.4,21.9l-8.4-21.9h2.5L216,119.1z"/>
		<path class="st2" d="M248.8,113.7c0,5.9-4.9,10.7-10.8,10.7c-3.1,0-6.2-1.5-8.2-3.9c-1.6-1.9-2.4-4.3-2.4-6.9
			c0-5.7,5-10.6,10.8-10.6C243.9,103,248.8,107.8,248.8,113.7z M229.6,113.5c0,2.6,1,4.9,2.9,6.5c1.5,1.4,3.6,2.1,5.5,2.1
			c4.7,0,8.5-3.8,8.5-8.5s-3.7-8.5-8.4-8.5C233.4,105.2,229.6,109,229.6,113.5z"/>
		<path class="st2" d="M258.9,124h-2.3v-18.5h-5v-2.1h12.3v2.1h-5V124z"/>
		<path class="st2" d="M269,102.5l16.1,16.9v-16h2.3V125l-16.1-16.9V124H269V102.5z"/>
		<path class="st2" d="M297.3,118.1l-2.5,5.9h-2.5l9.5-21.7l9.3,21.7h-2.5l-2.4-5.9H297.3z M301.7,107.7l-3.5,8.3h7L301.7,107.7z
			 M301.4,101.7l-1.3-1l3.7-4l2.1,1.4L301.4,101.7z"/>
		<path class="st2" d="M327.9,124h-2.3v-20.7h3.7c2.5,0,4,0.4,5.2,1.5c1.2,1,1.9,2.6,1.9,4.3c0,3.6-2.5,5.8-6.5,5.8h-2V124
			L327.9,124z M329.8,112.8c2.8,0,4.4-1.4,4.4-3.7c0-2.4-1.5-3.7-4.6-3.7h-1.7v7.4H329.8z"/>
		<path class="st2" d="M362.1,113.7c0,5.9-4.9,10.7-10.8,10.7c-3.1,0-6.2-1.5-8.2-3.9c-1.6-1.9-2.4-4.3-2.4-6.9
			c0-5.7,5-10.6,10.8-10.6C357.2,103,362.1,107.8,362.1,113.7z M342.9,113.5c0,2.6,1,4.9,2.9,6.5c1.5,1.4,3.6,2.1,5.5,2.1
			c4.7,0,8.5-3.8,8.5-8.5s-3.7-8.5-8.4-8.5C346.7,105.2,342.9,109,342.9,113.5z"/>
		<path class="st2" d="M370.6,124h-2.3v-20.7h2.3V124z"/>
		<path class="st2" d="M387.1,107.4c-1.1-1.7-2-2.2-3.6-2.2c-1.9,0-3.4,1.4-3.4,3.2c0,0.9,0.4,1.6,1.3,2.2c0.7,0.5,0.7,0.5,3.6,1.7
			c3.3,1.5,4.7,3.1,4.7,5.7c0,3.6-2.9,6.4-6.6,6.4c-3.3,0-5.6-2-6.4-5.3l2.2-0.6c0.2,1.1,0.4,1.5,0.8,2.1c0.7,1.1,2,1.7,3.4,1.7
			c2.3,0,4.2-1.8,4.2-4.1c0-1.3-0.6-2.2-1.7-2.9c-0.8-0.5-0.8-0.5-3.7-1.8c-3-1.3-4.2-2.8-4.2-5.1c0-3,2.5-5.3,5.8-5.3
			c2.3,0,4.1,1.1,5.3,3.2L387.1,107.4z"/>
		<path class="st2" d="M400.9,124h-2.3v-18.5h-5v-2.1h12.3v2.1h-5V124z M399.8,101.6l-4.4-3.7l1.6-1.3l2.7,2.3l2.7-2.3l1.6,1.3
			L399.8,101.6z"/>
		<path class="st2" d="M431.3,113.7c0,5.9-4.9,10.7-10.8,10.7c-3.1,0-6.2-1.5-8.2-3.9c-1.6-1.9-2.4-4.3-2.4-6.9
			c0-5.7,5-10.6,10.8-10.6C426.5,103,431.3,107.8,431.3,113.7z M412.2,113.5c0,2.6,1,4.9,2.9,6.5c1.5,1.4,3.6,2.1,5.5,2.1
			c4.7,0,8.5-3.8,8.5-8.5s-3.7-8.5-8.4-8.5C416,105.2,412.2,109,412.2,113.5z"/>
		<path class="st2" d="M442.7,119.1l5.9-15.7h2.5l-8.4,21.9l-8.4-21.9h2.5L442.7,119.1z"/>
		<path class="st2" d="M455.9,102.5l16.1,16.9v-16h2.3V125l-16.1-16.9V124h-2.3V102.5z M465.1,101.6l-4.4-3.7l1.6-1.3l2.7,2.3
			l2.7-2.3l1.6,1.3L465.1,101.6z"/>
		<path class="st2" d="M484.1,118.1l-2.5,5.9h-2.5l9.5-21.7l9.3,21.7h-2.5l-2.4-5.9H484.1z M488.6,107.7l-3.5,8.3h7L488.6,107.7z"/>
	</g>
</g>
</svg>
