<?xml version="1.0" encoding="utf-8"?>
<svg version="1.1" id="Layer_1" xmlns="http://www.w3.org/2000/svg" xmlns:xlink="http://www.w3.org/1999/xlink" x="0px" y="0px"
	 viewBox="0 0 469.5 49.3" style="enable-background:new 0 0 469.5 49.3;" preserveAspectRatio="xMidYMid meet" xml:space="preserve">
<style type="text/css">
	.st0{fill-rule:evenodd;clip-rule:evenodd;fill:#51B4B6;}
	.st1{fill-rule:evenodd;clip-rule:evenodd;fill:#00928F;}
	.st2{fill-rule:evenodd;clip-rule:evenodd;fill:#00A2A2;}
	.st3{fill:#58595B;}
</style>
<g>
	<path class="st0" d="M40.6,2.2c-1.2-1.6-2.9-2.5-5.1-2.2c-1.9,0.3-3.2,1.5-4.1,2.8c-0.9,2.2-1,4.4,0.9,6.1l8.3,8.5L49.1,9
		C50.9,7.2,50.7,5,50,2.8c-0.9-1.3-2.2-2.5-4.2-2.8C43.7-0.2,41.9,0.6,40.6,2.2z"/>
	<path class="st1" d="M40.6,49.3L81.2,8.7c-6.7-0.3-14,0.4-18.3,4.5L40.6,35.7L18.1,13.2C14.2,9.3,7.2,8.4,0,8.7L40.6,49.3z"/>
	<path class="st2" d="M40.6,31.3l26-26.2C62.1,4.9,57,5.5,54.2,8.2L40.6,22L27,8.2C24.3,5.5,19.4,5,14.5,5.2L40.6,31.3z"/>
	<path class="st3" d="M167.9,29.9c0-3.2,2.2-5.4,5.3-5.4c1.3,0,2.5,0.4,3.9,1.3v-2.5c-1.5-0.4-2.8-0.6-3.9-0.6
		c-4.4,0-7.7,3.2-7.7,7.5c0,4.5,3.4,7.6,8.3,7.6c1.3,0,2.2-0.1,3.4-0.7l1.2-2.5c-1.9,1-3.4,1.5-4.8,1.5
		C170.4,36,167.9,33.2,167.9,29.9z M149.9,29.6c-0.4-0.1-0.9-0.3-1.6-0.6c0.4-0.1,0.7-0.3,0.9-0.4c0.9-0.6,1.3-1.5,1.3-2.3
		c0-1.2-0.7-2.2-1.8-2.8c-0.6-0.3-1.2-0.4-2-0.4H145c-0.6,0-1,0-1,0h-3.2c0.9,0.4,1,0.9,1,2.8v8.8c0,1.9-0.1,2.3-1,2.8h6
		c1,0,1.8-0.1,2.3-0.6c1.8-0.7,2.8-2.2,2.8-3.9C151.8,31.5,151.1,30.3,149.9,29.6z M143.9,24.5c0.6,0,1-0.1,1.5-0.1
		c0.4,0,0.9,0.1,1.3,0.3c0.9,0.3,1.5,1,1.5,1.9c0,0.9-0.6,1.6-1.5,2c-0.6,0.1-1.3,0.3-2,0.3h-0.7V24.5z M146.7,35.9h-0.9
		c-0.7,0-1.2,0-1.9-0.1v-5.4c0.6-0.1,1-0.1,1.6-0.1h1.2c0.7,0.1,1.2,0.4,1.8,0.7c0.6,0.6,1,1.3,1,2.2
		C149.5,34.7,148.5,35.6,146.7,35.9z M191.6,25.6v8.5l-8.2-10.2c-0.4-0.6-0.4-0.6-0.4-0.9h-3.2c0.9,0.6,1.2,1.2,1.2,2.6v9.2
		c0,1.5-0.3,1.9-1.2,2.5h3.8c-0.9-0.6-1-1-1-2.5v-8.8l7.6,9.6c0.9,1.3,1.8,2,3.1,2.3V25.6c0-1.5,0.1-2,1-2.6h-3.8
		C191.3,23.6,191.6,24.2,191.6,25.6z M130.8,22.7c0,0-0.1,0-0.3,0c-4.5,0-7.9,3.4-7.9,7.6c0,4.1,3.5,7.5,7.9,7.5c4.5,0,8-3.4,8-7.6
		c0-2-0.9-4.1-2.2-5.4C135,23.4,132.8,22.7,130.8,22.7z M130.6,36.1c0,0,0,0-0.1,0c-1.5,0-2.8-0.6-3.7-1.6c-1.2-1.3-1.8-2.9-1.8-4.7
		c0-1.5,0.4-3.1,1.5-4.1c0.9-0.9,2.5-1.6,3.9-1.6c1.8,0,3.1,0.7,4.1,1.9c1,1.2,1.5,2.8,1.5,4.4C136,33.8,133.8,36.1,130.6,36.1z
		 M107.8,18.6c-1,0-2.3,0.4-3.7,1c-1.3-0.6-2.5-1-3.5-1l3.5,3.1L107.8,18.6z M209,34.4L204.4,23h-3.5c0.6,0.3,0.7,0.4,0.7,0.9
		c0,0.3-0.1,0.6-0.3,1l-3.8,9.5c-0.7,1.9-1,2.3-2,2.9h3.9c-0.6-0.3-0.7-0.4-0.7-0.9c0-0.3,0.1-0.7,0.3-1.2l1.2-3.4h5.6l1.3,3.4
		c0.3,0.9,0.3,1,0.3,1.2c0,0.4-0.1,0.6-0.7,0.9h4.5C210.1,36.7,209.7,36.1,209,34.4z M200.8,30.6l2.2-5.7l2.2,5.7H200.8z
		 M207.6,20.1l-1.2-1.6L203,21l-1.3,0.9l1.3-0.3L207.6,20.1z M95.1,24.3c0,0.4-0.1,1-0.7,2.3l-3.1,8.2L87.8,25
		c-0.4-0.9-0.6-1.5-0.6-1.8c0-0.1,0-0.1,0-0.3H84c0.9,0.7,0.9,0.9,1.9,3.7l3.1,8c0.6,1.8,0.7,2,2.8,3.4L97.6,23h-3.4
		C94.8,23.3,95.1,23.6,95.1,24.3z M104.8,29c-2.6-1.2-3.2-1.6-3.2-2.8c0-1.2,1.2-2,2.8-2c1.3,0,2.6,0.6,3.5,1.5v-2.5
		c-1.2-0.3-2.2-0.4-3.4-0.4c-3.2,0-5.4,1.5-5.4,3.8c0,1,0.4,1.9,1.2,2.5c0.6,0.6,1.3,1,2.9,1.8c1.9,0.9,2.3,1.2,2.8,1.6
		c0.4,0.3,0.7,0.9,0.7,1.5c0,1.3-1.3,2.3-3.2,2.3c-1.8,0-3.4-0.6-4.8-1.8l0.7,2.6c1.3,0.6,2.5,0.7,3.8,0.7c1.9,0,3.5-0.6,4.5-1.6
		c0.9-0.9,1.5-1.9,1.5-2.9c0-1-0.4-1.8-1.2-2.5C107.3,30.3,106.5,29.9,104.8,29z M114.4,35.6v-5.3h1.9c1,0,1.3,0.1,1.8,0.6v-2.2
		c-0.3,0-0.4,0.1-0.7,0.1h-2.9v-4.1c0.6-0.1,1.2-0.1,2.2-0.1c1.5,0,2,0.1,2.8,0.9v-2.6c-0.3,0.1-0.4,0.1-0.9,0.1h-7.3
		c0.9,0.4,1,0.9,1,2.8v8.8c0,1.9-0.1,2.3-1,2.8h9.1l1-2.8c-1.2,0.9-2.3,1.2-4.2,1.2C116,35.7,115.4,35.7,114.4,35.6z M157.2,35.6
		v-5.3h2c0.9,0,1.3,0.1,1.6,0.6v-2.2c-0.3,0-0.4,0.1-0.7,0.1h-2.9v-4.1c0.7-0.1,1.2-0.1,2.3-0.1c1.3,0,1.9,0.1,2.6,0.9v-2.6
		c-0.3,0.1-0.4,0.1-0.9,0.1h-7.2c0.7,0.4,0.9,0.9,0.9,2.8v8.8c0,1.9-0.1,2.3-0.9,2.8h9.1l1-2.8c-1.2,0.9-2.3,1.2-4.2,1.2
		C159,35.7,158.3,35.7,157.2,35.6z M304.7,23c-0.4,0-0.9,0-1-0.1l-0.9,2.6c0.9-0.7,1.5-0.9,2.8-0.9c0.6,0,1.3,0,1.8,0.1v9.8
		c0,1.9-0.1,2.5-0.9,2.8h4.2c-0.9-0.6-1.2-1-1.2-2.5V24.7h0.4c1-0.1,1-0.1,1.5-0.1c1.3,0,1.8,0.3,2,0.9l0.7-2.6
		c-0.1,0.1-0.3,0.1-0.4,0.1H304.7z M283.6,24.3c0,0.4-0.1,1-0.6,2.3l-3.1,8.2l-3.7-9.8c-0.3-0.9-0.4-1.5-0.4-1.8c0-0.1,0-0.1,0-0.3
		h-3.2c0.9,0.7,0.9,0.9,1.9,3.7l2.9,8c0.7,1.8,0.9,2,2.9,3.4l5.7-15.1h-3.2C283.3,23.3,283.6,23.6,283.6,24.3z M294.6,22.7h-0.1
		c-4.7,0-8,3.4-8,7.6c0,4.1,3.5,7.5,7.9,7.5h0.1c4.4,0,8-3.4,8-7.6c0-2-0.9-4.1-2.3-5.4C298.8,23.4,296.6,22.7,294.6,22.7z
		 M294.4,36.1c-1.6,0-2.8-0.6-3.8-1.6c-1.2-1.3-1.8-2.9-1.8-4.7c0-1.5,0.6-3.1,1.5-4.1c1-0.9,2.5-1.6,3.9-1.6h0.1
		c1.6,0,2.9,0.7,3.9,1.9c1,1.2,1.6,2.8,1.6,4.4C300,33.8,297.7,36.1,294.4,36.1z M327,25.6v8.5l-8-10.2c-0.4-0.6-0.4-0.6-0.6-0.9
		h-3.2c0.9,0.6,1.2,1.2,1.2,2.6v9.2c0,1.5-0.3,1.9-1.2,2.5h3.9c-0.9-0.6-1.2-1-1.2-2.5v-8.8l7.6,9.6c0.9,1.3,1.9,2,3.1,2.3V25.6
		c0-1.5,0.1-2,1.2-2.6h-3.9C326.7,23.6,327,24.2,327,25.6z M343.8,34.4L339.3,23h-3.5c0.6,0.3,0.7,0.4,0.7,0.9c0,0.3-0.2,0.6-0.3,1
		l-3.8,9.5c-0.7,1.9-1,2.3-2,2.9h3.9c-0.6-0.3-0.7-0.4-0.7-0.9c0-0.3,0-0.7,0.3-1.2l1.2-3.4h5.6l1.3,3.4c0.3,0.9,0.3,1,0.3,1.2
		c0,0.4-0.1,0.6-0.7,0.9h4.5C345,36.7,344.6,36.1,343.8,34.4z M335.6,30.6l2.2-5.7l2.2,5.7H335.6z M237.7,23.1
		c-0.6-0.1-1.2-0.1-1.8-0.1h-5.4c0.7,0.4,1,0.9,1,2.8v8.8c0,0.9-0.1,1.5-0.3,1.9c0,0.3-0.1,0.3-0.7,0.9h3.5c1.5,0,2.6,0,3.7-0.1
		c0.9,0,1.5-0.3,2-0.6c2.6-1,4.2-3.7,4.2-6.6c0-2-0.9-3.9-2.5-5.3C240.5,23.9,239.2,23.3,237.7,23.1z M239.5,34.7
		c-0.4,0.4-1.2,0.7-1.8,0.9c-0.7,0.1-1.5,0.1-2.3,0.1c-0.7,0-1,0-1.6-0.1V24.7c0.7-0.3,1.2-0.3,1.9-0.3c0.7,0,1.3,0,2,0.3
		c0.9,0.1,1.8,0.7,2.3,1.3c1,1,1.6,2.6,1.6,4.2C241.7,32.2,241,33.7,239.5,34.7z M342.5,20.1l-1.2-1.6l-3.5,2.5l-1.3,0.9l1.3-0.3
		L342.5,20.1z M220.6,35.6l7.9-12.6h-9.6l-1,2.5c1.5-0.7,1.9-0.9,3.5-0.9c1.5,0,2.5,0,3.7,0.1l-8,12.6h11.5l1.2-2.8
		c-1.6,0.9-2.8,1.2-4.5,1.2C224,35.7,222.3,35.7,220.6,35.6z M251.8,30.3c2.2-0.4,3.7-2,3.7-3.7c0-1-0.6-2.2-1.5-2.8
		c-0.9-0.6-1.9-0.9-3.2-0.9h-5.1c0.7,0.4,0.9,0.9,0.9,2.8v8.8c0,1.9-0.1,2.3-0.9,2.8h4.1c-0.9-0.4-1-0.9-1-2.8V24.5
		c0.7,0,1.2-0.1,1.6-0.1c1.6,0,2.6,1,2.6,2.5c0,1.6-1.2,2.6-3.7,3.1c1.2,2,2.5,3.9,3.8,5.4c1.5,1.8,2.2,2.2,3.4,2.2
		c0.4,0,0.7,0,2-0.1C256.7,36.4,255.1,34.7,251.8,30.3z M272.2,34.4L267.7,23h-3.5c0.4,0.3,0.6,0.4,0.6,0.9c0,0.3,0,0.6-0.1,1
		l-3.9,9.5c-0.6,1.9-0.9,2.3-1.9,2.9h3.9c-0.6-0.3-0.7-0.4-0.7-0.9c0-0.3,0-0.7,0.1-1.2l1.3-3.4h5.6l1.2,3.4c0.4,0.9,0.4,1,0.4,1.2
		c0,0.4-0.1,0.6-0.7,0.9h4.5C273.4,36.7,273,36.1,272.2,34.4z M263.9,30.6l2.3-5.7l2.2,5.7H263.9z M395.1,30.7
		c-0.6-0.4-1.3-0.9-3.1-1.8c-2.6-1.2-3.4-1.6-3.4-2.8c0-1.2,1.2-2,2.9-2c1.3,0,2.6,0.6,3.5,1.5v-2.5c-1.2-0.3-2.2-0.4-3.4-0.4
		c-3.2,0-5.4,1.5-5.4,3.8c0,1,0.4,1.9,1.2,2.5c0.6,0.6,1.3,1,2.9,1.8c1.8,0.9,2.3,1.2,2.8,1.6c0.4,0.3,0.7,0.9,0.7,1.5
		c0,1.3-1.3,2.3-3.2,2.3c-1.8,0-3.4-0.6-4.8-1.8l0.7,2.6c1.3,0.6,2.5,0.7,3.8,0.7c1.9,0,3.5-0.6,4.5-1.6c0.9-0.9,1.5-1.9,1.5-2.9
		C396.4,32.2,396,31.5,395.1,30.7z M435,24.3c0,0.4-0.1,1-0.6,2.3l-3.1,8.2l-3.7-9.8c-0.3-0.9-0.4-1.5-0.4-1.8c0-0.1,0-0.1,0-0.3
		h-3.2c0.9,0.7,0.9,0.9,1.9,3.7l2.9,8c0.7,1.8,0.9,2,2.9,3.4l5.8-15.1h-3.4C434.9,23.3,435,23.6,435,24.3z M370.9,22.7
		c-0.1,0-0.1,0-0.3,0c-4.5,0-7.9,3.4-7.9,7.6c0,4.1,3.5,7.5,7.9,7.5c4.5,0,8-3.4,8-7.6c0-2-0.9-4.1-2.2-5.4
		C375.1,23.4,372.9,22.7,370.9,22.7z M370.7,36.1c-0.1,0-0.1,0-0.1,0c-1.5,0-2.8-0.6-3.8-1.6c-1-1.3-1.8-2.9-1.8-4.7
		c0-1.5,0.6-3.1,1.6-4.1c0.9-0.9,2.5-1.6,3.9-1.6c1.8,0,3.1,0.7,4.1,1.9c1,1.2,1.5,2.8,1.5,4.4C376.1,33.8,373.9,36.1,370.7,36.1z
		 M406.1,18.6c-1,0-2.3,0.4-3.7,1c-1.3-0.6-2.5-1-3.5-1l3.5,3.1L406.1,18.6z M449.6,18.6c-1.2,0-2.3,0.4-3.7,1c-1.5-0.6-2.5-1-3.5-1
		l3.5,3.1L449.6,18.6z M450.5,25.6v8.5l-8-10.2c-0.4-0.6-0.4-0.6-0.6-0.9h-3.1c0.9,0.6,1,1.2,1,2.6v9.2c0,1.5-0.1,1.9-1,2.5h3.8
		c-0.9-0.6-1.2-1-1.2-2.5v-8.8l7.7,9.6c0.9,1.3,1.8,2,2.9,2.3V25.6c0-1.5,0.3-2,1.2-2.6h-3.9C450.4,23.6,450.5,24.2,450.5,25.6z
		 M359.2,23.6c-0.7-0.4-1.6-0.6-2.8-0.6h-0.7c-1.8,0-1.8,0-2.5,0h-2c0.9,0.4,1,0.9,1,2.8v8.8c0,1.9-0.1,2.3-1,2.8h4.4
		c-0.9-0.4-1.2-1-1.2-2.5V24.7c0.6-0.1,0.9-0.3,1.5-0.3c2,0,3.2,1,3.2,2.8c0,0.9-0.4,1.6-1.2,2.3c-0.7,0.6-1.5,0.9-2.8,1
		c0.6,0.3,0.9,0.3,1.6,0.3c2.6,0,4.8-1.8,4.8-4.1C361.5,25.5,360.6,24.2,359.2,23.6z M465,37.3h4.5c-0.9-0.6-1.3-1.2-2-2.9L462.8,23
		h-3.4c0.4,0.3,0.6,0.4,0.6,0.9c0,0.3,0,0.6-0.1,1l-3.9,9.5c-0.7,1.9-1,2.3-2,2.9h4.1c-0.6-0.3-0.9-0.4-0.9-0.9
		c0-0.3,0.1-0.7,0.3-1.2l1.3-3.4h5.4l1.3,3.4c0.3,0.9,0.4,1,0.4,1.2C465.8,36.9,465.7,37,465,37.3z M459.1,30.6l2.2-5.7l2.3,5.7
		H459.1z M416.5,22.7c-0.1,0-0.3,0-0.3,0c-4.5,0-8,3.4-8,7.6c0,4.1,3.5,7.5,8,7.5c4.5,0,8-3.4,8-7.6c0-2-0.9-4.1-2.2-5.4
		C420.5,23.4,418.5,22.7,416.5,22.7z M416.2,36.1c-1.6,0-2.8-0.6-3.8-1.6c-1.2-1.3-1.8-2.9-1.8-4.7c0-1.5,0.6-3.1,1.5-4.1
		c1-0.9,2.5-1.6,3.9-1.6c0.1,0,0.1,0,0.1,0c1.6,0,2.9,0.7,4.1,1.9c0.9,1.2,1.5,2.8,1.5,4.4C421.7,33.8,419.4,36.1,416.2,36.1z
		 M384.3,23h-4.1c0.9,0.4,1,0.9,1,2.8v8.8c0,1.9-0.1,2.3-1,2.8h4.1c-0.7-0.4-0.9-0.9-0.9-2.8v-8.8C383.4,23.9,383.6,23.4,384.3,23z
		 M407.7,23c0,0-0.3,0-0.9,0h-8.2c-0.4,0-0.9,0-1-0.1l-0.9,2.6c0.9-0.7,1.5-0.9,2.9-0.9c0.4,0,1.3,0,1.8,0.1v9.8
		c0,1.9-0.3,2.5-1,2.8h4.2c-0.9-0.6-1-1-1-2.5V24.7h0.3c1-0.1,1-0.1,1.5-0.1c1.3,0,1.8,0.3,2,0.9l0.7-2.6C408,23,407.8,23,407.7,23z
		"/>
</g>
</svg>
